<?xml version="1.0" standalone="no"?><!DOCTYPE svg PUBLIC "-//W3C//DTD SVG 1.1//EN" "http://www.w3.org/Graphics/SVG/1.1/DTD/svg11.dtd"><svg t="1735824364043" class="icon" viewBox="0 0 1024 1024" version="1.1" xmlns="http://www.w3.org/2000/svg" p-id="4458" xmlns:xlink="http://www.w3.org/1999/xlink" width="200" height="200"><path d="M822.5 125.9H231.1c-38 0-68.9 30.9-68.9 68.9v346.3h27.6V194.8c0-22.8 18.5-41.3 41.3-41.3h64.3V527c0 5.1 2.8 9.8 7.3 12.2 2 1 4.2 1.6 6.4 1.6 2.7 0 5.4-0.8 7.8-2.4L417 470.2l106.3 68.3c4.2 2.7 9.6 2.9 14.1 0.5 4.4-2.4 7.2-7.1 7.2-12.1V153.5h278c7.6 0 13.8 6.2 13.8 13.8v555.9H231.1c-15.6 0-29.8 5.4-41.3 14.1v-86.1h-27.6V827.3c0 38 30.9 68.9 68.9 68.9h591.5c22.8 0 41.3-18.5 41.3-41.3V167.3c0-22.9-18.6-41.4-41.4-41.4zM517 501.7l-92.7-59.6c-4.6-3-10.6-2.9-15.2 0.2l-86.2 58.6V153.5H517v348.2z m319.3 352.5c0 7.6-6.2 13.8-13.8 13.8H231.1c-22.8 0-41.3-18.5-41.3-41.3v-34.5c0-22.8 18.5-41.3 41.3-41.3h605.2v103.3z" fill="#3259CE" p-id="4459"></path><path d="M189.7 652.2c0 7.6-6.2 67.4-13.8 67.4s-13.8-59.8-13.8-67.4c0-7.6 6.2-13.8 13.8-13.8s13.8 6.2 13.8 13.8z" fill="#3259CE" p-id="4460"></path><path d="M175.9 540.7m-13.8 0a13.8 13.8 0 1 0 27.6 0 13.8 13.8 0 1 0-27.6 0Z" fill="#3259CE" p-id="4461"></path></svg>